<svg width="838" height="152" viewBox="0 0 838 152" fill="none" xmlns="http://www.w3.org/2000/svg">
<path d="M218.212 92.5332C216.911 94.1657 215.307 95.5907 213.397 96.8081C211.488 98.0256 209.441 99.0355 207.255 99.8379C205.069 100.64 202.828 101.235 200.531 101.623C198.235 102.038 196.049 102.245 193.974 102.245C189.962 102.245 186.268 101.526 182.892 100.087C179.516 98.6481 176.597 96.6698 174.135 94.1519C171.7 91.6063 169.791 88.618 168.407 85.187C167.024 81.756 166.332 78.0622 166.332 74.1055C166.332 71.0895 166.678 68.1427 167.37 65.2651C168.061 62.3599 169.044 59.6344 170.316 57.0889C171.617 54.5156 173.194 52.1637 175.048 50.0332C176.902 47.875 179.005 46.0212 181.356 44.4717C183.708 42.9222 186.282 41.7186 189.076 40.8608C191.871 40.0031 194.859 39.5742 198.041 39.5742C199.231 39.5742 200.504 39.6296 201.859 39.7402C203.215 39.8232 204.557 39.9893 205.885 40.2383C207.241 40.4596 208.555 40.7778 209.828 41.1929C211.101 41.6079 212.263 42.1198 213.314 42.7285L212.152 58.583C210.603 58.002 208.998 57.6146 207.338 57.4209C205.705 57.1995 204.101 57.0889 202.523 57.0889C200.31 57.0889 198.235 57.4347 196.298 58.1265C194.389 58.7905 192.715 59.759 191.276 61.0317C189.865 62.3045 188.744 63.854 187.914 65.6802C187.084 67.5063 186.669 69.5677 186.669 71.8643C186.669 73.3031 186.863 74.7004 187.25 76.0562C187.637 77.3843 188.218 78.5741 188.993 79.6255C189.796 80.6493 190.778 81.4793 191.94 82.1157C193.13 82.7521 194.499 83.0703 196.049 83.0703C197.1 83.0703 198.179 82.932 199.286 82.6553C200.421 82.3786 201.389 81.9082 202.191 81.2441L202.357 78.0068L192.396 77.8408L192.895 65.3896C197.017 65.2513 201.14 65.1406 205.263 65.0576C209.385 64.9469 213.536 64.8086 217.714 64.6426L218.212 92.5332ZM272.707 69.208C272.707 71.7259 272.416 74.1608 271.835 76.5127C271.254 78.8369 270.41 81.0228 269.303 83.0703C268.224 85.1178 266.896 86.9993 265.319 88.7148C263.769 90.4027 262.012 91.8553 260.048 93.0728C258.111 94.2902 255.994 95.2448 253.698 95.9365C251.401 96.6006 248.966 96.9326 246.393 96.9326C243.903 96.9326 241.523 96.6144 239.254 95.978C237.013 95.3416 234.91 94.4562 232.946 93.3218C230.981 92.1597 229.197 90.7762 227.592 89.1714C226.015 87.5389 224.659 85.7404 223.524 83.7759C222.418 81.7837 221.546 79.6532 220.91 77.3843C220.301 75.1154 219.997 72.7497 219.997 70.2871C219.997 67.8799 220.287 65.528 220.868 63.2314C221.449 60.9072 222.279 58.7214 223.358 56.6738C224.465 54.6263 225.793 52.7448 227.343 51.0293C228.892 49.3138 230.622 47.8335 232.531 46.5884C234.468 45.3433 236.557 44.3748 238.798 43.6831C241.039 42.9914 243.405 42.6455 245.895 42.6455C249.907 42.6455 253.559 43.2681 256.852 44.5132C260.172 45.7583 262.995 47.543 265.319 49.8672C267.671 52.1637 269.483 54.9583 270.756 58.251C272.056 61.516 272.707 65.1683 272.707 69.208ZM254.279 70.2871C254.279 69.0973 254.099 67.9491 253.739 66.8423C253.407 65.7078 252.909 64.7118 252.245 63.854C251.581 62.9686 250.751 62.263 249.755 61.7373C248.786 61.1839 247.666 60.9072 246.393 60.9072C245.093 60.9072 243.931 61.1424 242.907 61.6128C241.883 62.0832 240.998 62.7334 240.25 63.5635C239.531 64.3659 238.978 65.3205 238.59 66.4272C238.203 67.5063 238.009 68.6546 238.009 69.8721C238.009 71.0342 238.175 72.1963 238.507 73.3584C238.839 74.5205 239.337 75.5719 240.001 76.5127C240.666 77.4535 241.482 78.2144 242.45 78.7954C243.446 79.3765 244.595 79.667 245.895 79.667C247.195 79.667 248.358 79.418 249.381 78.9199C250.433 78.3942 251.318 77.7025 252.038 76.8447C252.757 75.9593 253.31 74.9494 253.698 73.8149C254.085 72.6805 254.279 71.5046 254.279 70.2871ZM313.297 57.0889L294.289 81.0781H311.803L312.384 98.6758L275.363 100.17L273.703 83.9004L295.368 57.3379L273.869 58.832L273.703 42.1475H312.55L313.297 57.0889ZM352.934 79.0029L351.19 97.4307L316.244 100.17L317.572 40.9023H339.154L336.083 79.0029H352.934ZM401.203 67.4648C401.203 69.8721 401.037 72.2793 400.705 74.6865C395.973 74.9909 391.269 75.4889 386.593 76.1807C381.917 76.8447 377.241 77.5088 372.565 78.1729C373.284 80.165 374.405 81.756 375.927 82.9458C377.476 84.1356 379.316 84.7305 381.447 84.7305C382.554 84.7305 383.757 84.5229 385.058 84.1079C386.386 83.6929 387.7 83.181 389 82.5723C390.301 81.9359 391.546 81.258 392.736 80.5386C393.926 79.8192 394.949 79.1689 395.807 78.5879L393.815 97.4307C392.736 98.2607 391.56 98.9663 390.287 99.5474C389.042 100.128 387.742 100.599 386.386 100.958C385.03 101.318 383.66 101.581 382.277 101.747C380.893 101.913 379.538 101.996 378.209 101.996C375.47 101.996 372.966 101.623 370.697 100.875C368.428 100.128 366.367 99.0908 364.513 97.7627C362.687 96.4069 361.082 94.8159 359.699 92.9897C358.315 91.1636 357.167 89.1714 356.254 87.0132C355.341 84.855 354.649 82.5723 354.179 80.165C353.708 77.7578 353.473 75.3229 353.473 72.8604C353.473 70.2871 353.708 67.7139 354.179 65.1406C354.649 62.5674 355.355 60.091 356.295 57.7114C357.264 55.3319 358.467 53.1322 359.906 51.1123C361.373 49.0648 363.074 47.2801 365.011 45.7583C366.948 44.2365 369.134 43.0467 371.569 42.189C374.031 41.3312 376.743 40.9023 379.704 40.9023C382.166 40.9023 384.407 41.2482 386.427 41.9399C388.475 42.604 390.287 43.5448 391.864 44.7622C393.469 45.952 394.853 47.377 396.015 49.0371C397.204 50.6973 398.173 52.5234 398.92 54.5156C399.695 56.4801 400.262 58.5692 400.622 60.7827C401.009 62.9686 401.203 65.196 401.203 67.4648ZM384.601 65.3066C384.601 64.5319 384.518 63.7433 384.352 62.9409C384.186 62.1108 383.909 61.3638 383.522 60.6997C383.162 60.0356 382.678 59.4961 382.069 59.0811C381.461 58.6383 380.7 58.417 379.787 58.417C378.68 58.417 377.698 58.7214 376.84 59.3301C376.01 59.9111 375.29 60.6582 374.682 61.5713C374.073 62.4567 373.575 63.4251 373.188 64.4766C372.8 65.528 372.51 66.4964 372.316 67.3818L384.601 66.2197V65.3066ZM471.303 42.8115L456.112 100.585L435.526 101.747L416.85 43.3926L436.522 41.5664L444.491 75.5996L452.211 41.5664L471.303 42.8115ZM494.337 42.5625L491.432 99.0908L473.917 100.004L472.257 43.7246L494.337 42.5625ZM544.765 68.0459C544.765 71.9196 544.267 75.3921 543.271 78.4634C542.274 81.5347 540.877 84.2601 539.079 86.6396C537.308 88.9915 535.191 90.9976 532.729 92.6577C530.266 94.3179 527.568 95.6875 524.635 96.7666C521.702 97.818 518.576 98.5928 515.255 99.0908C511.963 99.5889 508.573 99.8379 505.087 99.8379C503.786 99.8379 502.514 99.8102 501.269 99.7549C500.023 99.6719 498.751 99.5612 497.45 99.4229L498.612 45.3848C501.656 44.4163 504.783 43.7384 507.992 43.3511C511.229 42.936 514.439 42.7285 517.621 42.7285C521.578 42.7285 525.216 43.2819 528.537 44.3887C531.857 45.4954 534.721 47.1279 537.128 49.2861C539.535 51.4167 541.403 54.0591 542.731 57.2134C544.087 60.34 544.765 63.9508 544.765 68.0459ZM516.542 83.9834C518.202 83.7344 519.71 83.2363 521.066 82.4893C522.449 81.7145 523.639 80.7738 524.635 79.667C525.631 78.5326 526.392 77.2598 526.918 75.8486C527.471 74.4098 527.748 72.888 527.748 71.2832C527.748 69.7061 527.582 68.2396 527.25 66.8838C526.918 65.5003 526.378 64.3105 525.631 63.3145C524.884 62.2907 523.902 61.4883 522.685 60.9072C521.467 60.2985 519.973 59.9665 518.202 59.9111L516.542 83.9834ZM593.698 67.4648C593.698 69.8721 593.532 72.2793 593.2 74.6865C588.468 74.9909 583.764 75.4889 579.088 76.1807C574.412 76.8447 569.736 77.5088 565.06 78.1729C565.779 80.165 566.9 81.756 568.422 82.9458C569.971 84.1356 571.811 84.7305 573.942 84.7305C575.049 84.7305 576.252 84.5229 577.553 84.1079C578.881 83.6929 580.195 83.181 581.496 82.5723C582.796 81.9359 584.041 81.258 585.231 80.5386C586.421 79.8192 587.444 79.1689 588.302 78.5879L586.31 97.4307C585.231 98.2607 584.055 98.9663 582.782 99.5474C581.537 100.128 580.237 100.599 578.881 100.958C577.525 101.318 576.155 101.581 574.772 101.747C573.389 101.913 572.033 101.996 570.705 101.996C567.965 101.996 565.461 101.623 563.192 100.875C560.924 100.128 558.862 99.0908 557.008 97.7627C555.182 96.4069 553.577 94.8159 552.194 92.9897C550.81 91.1636 549.662 89.1714 548.749 87.0132C547.836 84.855 547.144 82.5723 546.674 80.165C546.203 77.7578 545.968 75.3229 545.968 72.8604C545.968 70.2871 546.203 67.7139 546.674 65.1406C547.144 62.5674 547.85 60.091 548.791 57.7114C549.759 55.3319 550.963 53.1322 552.401 51.1123C553.868 49.0648 555.569 47.2801 557.506 45.7583C559.443 44.2365 561.629 43.0467 564.064 42.189C566.527 41.3312 569.238 40.9023 572.199 40.9023C574.661 40.9023 576.903 41.2482 578.922 41.9399C580.97 42.604 582.782 43.5448 584.359 44.7622C585.964 45.952 587.348 47.377 588.51 49.0371C589.7 50.6973 590.668 52.5234 591.415 54.5156C592.19 56.4801 592.757 58.5692 593.117 60.7827C593.504 62.9686 593.698 65.196 593.698 67.4648ZM577.096 65.3066C577.096 64.5319 577.013 63.7433 576.847 62.9409C576.681 62.1108 576.404 61.3638 576.017 60.6997C575.657 60.0356 575.173 59.4961 574.564 59.0811C573.956 58.6383 573.195 58.417 572.282 58.417C571.175 58.417 570.193 58.7214 569.335 59.3301C568.505 59.9111 567.785 60.6582 567.177 61.5713C566.568 62.4567 566.07 63.4251 565.683 64.4766C565.295 65.528 565.005 66.4964 564.811 67.3818L577.096 66.2197V65.3066ZM647.736 69.208C647.736 71.7259 647.445 74.1608 646.864 76.5127C646.283 78.8369 645.439 81.0228 644.333 83.0703C643.253 85.1178 641.925 86.9993 640.348 88.7148C638.799 90.4027 637.042 91.8553 635.077 93.0728C633.14 94.2902 631.024 95.2448 628.727 95.9365C626.431 96.6006 623.996 96.9326 621.422 96.9326C618.932 96.9326 616.553 96.6144 614.284 95.978C612.042 95.3416 609.94 94.4562 607.975 93.3218C606.011 92.1597 604.226 90.7762 602.621 89.1714C601.044 87.5389 599.688 85.7404 598.554 83.7759C597.447 81.7837 596.575 79.6532 595.939 77.3843C595.33 75.1154 595.026 72.7497 595.026 70.2871C595.026 67.8799 595.316 65.528 595.897 63.2314C596.479 60.9072 597.309 58.7214 598.388 56.6738C599.494 54.6263 600.823 52.7448 602.372 51.0293C603.922 49.3138 605.651 47.8335 607.56 46.5884C609.497 45.3433 611.586 44.3748 613.827 43.6831C616.068 42.9914 618.434 42.6455 620.924 42.6455C624.936 42.6455 628.589 43.2681 631.881 44.5132C635.202 45.7583 638.024 47.543 640.348 49.8672C642.7 52.1637 644.512 54.9583 645.785 58.251C647.086 61.516 647.736 65.1683 647.736 69.208ZM629.308 70.2871C629.308 69.0973 629.128 67.9491 628.769 66.8423C628.437 65.7078 627.938 64.7118 627.274 63.854C626.61 62.9686 625.78 62.263 624.784 61.7373C623.816 61.1839 622.695 60.9072 621.422 60.9072C620.122 60.9072 618.96 61.1424 617.936 61.6128C616.912 62.0832 616.027 62.7334 615.28 63.5635C614.56 64.3659 614.007 65.3205 613.62 66.4272C613.232 67.5063 613.039 68.6546 613.039 69.8721C613.039 71.0342 613.205 72.1963 613.537 73.3584C613.869 74.5205 614.367 75.5719 615.031 76.5127C615.695 77.4535 616.511 78.2144 617.479 78.7954C618.476 79.3765 619.624 79.667 620.924 79.667C622.225 79.667 623.387 79.418 624.411 78.9199C625.462 78.3942 626.347 77.7025 627.067 76.8447C627.786 75.9593 628.34 74.9494 628.727 73.8149C629.114 72.6805 629.308 71.5046 629.308 70.2871ZM719.87 41.5664L699.865 69.208L716.715 98.5928L697.458 101.996L684.84 84.0664L684.176 102.826L666.911 103.49L668.239 39.9062L687.58 40.9854L686.085 59.7451L698.952 39.9062L719.87 41.5664ZM741.12 42.5625L738.214 99.0908L720.7 100.004L719.04 43.7246L741.12 42.5625ZM791.547 68.0459C791.547 71.9196 791.049 75.3921 790.053 78.4634C789.057 81.5347 787.659 84.2601 785.861 86.6396C784.09 88.9915 781.973 90.9976 779.511 92.6577C777.048 94.3179 774.35 95.6875 771.417 96.7666C768.485 97.818 765.358 98.5928 762.038 99.0908C758.745 99.5889 755.355 99.8379 751.869 99.8379C750.569 99.8379 749.296 99.8102 748.051 99.7549C746.806 99.6719 745.533 99.5612 744.232 99.4229L745.395 45.3848C748.438 44.4163 751.565 43.7384 754.774 43.3511C758.012 42.936 761.221 42.7285 764.403 42.7285C768.36 42.7285 771.999 43.2819 775.319 44.3887C778.639 45.4954 781.503 47.1279 783.91 49.2861C786.317 51.4167 788.185 54.0591 789.513 57.2134C790.869 60.34 791.547 63.9508 791.547 68.0459ZM763.324 83.9834C764.984 83.7344 766.492 83.2363 767.848 82.4893C769.232 81.7145 770.421 80.7738 771.417 79.667C772.414 78.5326 773.174 77.2598 773.7 75.8486C774.254 74.4098 774.53 72.888 774.53 71.2832C774.53 69.7061 774.364 68.2396 774.032 66.8838C773.7 65.5003 773.161 64.3105 772.414 63.3145C771.667 62.2907 770.684 61.4883 769.467 60.9072C768.249 60.2985 766.755 59.9665 764.984 59.9111L763.324 83.9834ZM836.703 79.75C836.703 83.5407 836.039 86.8195 834.711 89.5864C833.41 92.3257 831.612 94.5946 829.315 96.3931C827.047 98.1639 824.376 99.4782 821.305 100.336C818.262 101.166 814.983 101.581 811.469 101.581C810.113 101.581 808.619 101.401 806.986 101.042C805.382 100.682 803.749 100.239 802.089 99.7134C800.429 99.16 798.824 98.5789 797.274 97.9702C795.753 97.3338 794.397 96.7389 793.207 96.1855L795.033 79.916C797.385 81.3271 799.986 82.4062 802.836 83.1533C805.714 83.8727 808.536 84.2324 811.303 84.2324C811.828 84.2324 812.465 84.2186 813.212 84.1909C813.959 84.1356 814.665 84.0111 815.329 83.8174C816.02 83.596 816.601 83.2778 817.072 82.8628C817.542 82.4478 817.777 81.8529 817.777 81.0781C817.777 80.5524 817.611 80.1097 817.279 79.75C816.947 79.3626 816.518 79.0583 815.993 78.8369C815.467 78.5879 814.872 78.408 814.208 78.2974C813.544 78.159 812.894 78.0622 812.257 78.0068C811.621 77.9515 811.026 77.9238 810.473 77.9238C809.919 77.9238 809.477 77.9238 809.145 77.9238C806.765 77.9238 804.593 77.5503 802.628 76.8032C800.692 76.0562 799.018 75.0047 797.606 73.6489C796.223 72.2655 795.144 70.6053 794.369 68.6685C793.594 66.7039 793.207 64.5319 793.207 62.1523C793.207 58.8874 793.857 55.9683 795.158 53.395C796.486 50.7941 798.243 48.5944 800.429 46.7959C802.642 44.9697 805.174 43.5724 808.024 42.604C810.874 41.6356 813.821 41.1514 816.864 41.1514C818.22 41.1514 819.617 41.2067 821.056 41.3174C822.495 41.4004 823.92 41.5664 825.331 41.8154C826.77 42.0645 828.167 42.3826 829.523 42.77C830.879 43.1574 832.165 43.6416 833.383 44.2227L831.806 61.0732C829.924 60.4368 827.946 59.9111 825.871 59.4961C823.823 59.0534 821.817 58.832 819.853 58.832C819.493 58.832 819.022 58.8459 818.441 58.8735C817.888 58.8735 817.293 58.915 816.657 58.998C816.048 59.0534 815.425 59.1502 814.789 59.2886C814.153 59.4269 813.585 59.6206 813.087 59.8696C812.589 60.091 812.188 60.3953 811.884 60.7827C811.579 61.1701 811.441 61.6266 811.469 62.1523C811.496 62.7611 811.718 63.2314 812.133 63.5635C812.576 63.8955 813.129 64.1445 813.793 64.3105C814.485 64.4489 815.232 64.5181 816.034 64.5181C816.864 64.5181 817.681 64.5042 818.483 64.4766C819.285 64.4212 820.032 64.3797 820.724 64.3521C821.416 64.2967 821.983 64.2829 822.426 64.3105C824.639 64.4489 826.632 64.9193 828.402 65.7217C830.173 66.5241 831.667 67.5894 832.885 68.9175C834.13 70.2456 835.071 71.8366 835.707 73.6904C836.371 75.5166 836.703 77.5365 836.703 79.75Z" fill="black"/>
<path d="M123.592 41.7821C137.87 66.9115 144.344 114.257 116.98 129.803C89.617 145.35 33.4858 159.408 13.6931 113.585C-0.584362 88.4558 11.1805 34.7611 38.5436 19.2144C70.4325 -4.69946 109.315 16.6527 123.592 41.7821Z" fill="#CE0A0A"/>
<path d="M78.4321 8.08886C54.9678 -3.15388 -2.38628 37.9782 5.79142 97.2696C13.9691 156.561 74.6128 149.868 100.867 139.725C149.535 120.922 136.124 67.8821 132.178 56.2956C128.232 44.7091 101.662 -2.04095 44.0606 5.90335" stroke="black" stroke-width="10" stroke-linecap="round"/>
<path d="M53.6516 72.3413C54.2292 68.2932 54.8077 63.3703 55.3037 58.8153C56.0474 51.985 63.2011 47.8606 69.2684 51.0846C81.9891 57.8442 99.7711 68.7341 99.5431 76.6877C99.1841 89.2103 77.2236 97.0473 62.0753 100.97C55.3113 102.722 49.4317 96.7123 50.7023 89.8423C51.7625 84.1091 52.8992 77.6152 53.6516 72.3413Z" fill="white" stroke="black" stroke-width="10" stroke-linecap="round"/>
</svg>
