<svg width="289" height="63" viewBox="0 0 289 63" fill="none" xmlns="http://www.w3.org/2000/svg">
<path d="M63.0608 31.5C63.0608 48.897 48.9441 63 31.5304 63C14.1166 63 -1.52588e-05 48.897 -1.52588e-05 31.5C-1.52588e-05 14.103 14.1166 3.8147e-06 31.5304 3.8147e-06C48.9441 3.8147e-06 63.0608 14.103 63.0608 31.5Z" fill="#EE0000"/>
<path d="M44.3135 30.7205C44.914 31.0669 44.914 31.933 44.3135 32.2794L25.8146 42.9494C25.214 43.2958 24.4633 42.8628 24.4633 42.17L24.4633 20.8299C24.4633 20.1371 25.214 19.7041 25.8146 20.0505L44.3135 30.7205Z" fill="#F6F6F6"/>
<path d="M63.0608 31.5C63.0608 48.897 48.9441 63 31.5304 63C14.1166 63 -1.52588e-05 48.897 -1.52588e-05 31.5C-1.52588e-05 14.103 14.1166 3.8147e-06 31.5304 3.8147e-06C48.9441 3.8147e-06 63.0608 14.103 63.0608 31.5Z" fill="#EE0000"/>
<path d="M44.3135 30.7205C44.914 31.0669 44.914 31.933 44.3135 32.2794L25.8146 42.9494C25.214 43.2958 24.4633 42.8628 24.4633 42.17L24.4633 20.8299C24.4633 20.1371 25.214 19.7041 25.8146 20.0505L44.3135 30.7205Z" fill="#F6F6F6"/>
<path d="M63.0608 31.5C63.0608 48.897 48.9441 63 31.5304 63C14.1166 63 -1.52588e-05 48.897 -1.52588e-05 31.5C-1.52588e-05 14.103 14.1166 3.8147e-06 31.5304 3.8147e-06C48.9441 3.8147e-06 63.0608 14.103 63.0608 31.5Z" fill="#EE0000"/>
<path d="M44.3135 30.7205C44.914 31.0669 44.914 31.933 44.3135 32.2794L25.8146 42.9494C25.214 43.2958 24.4633 42.8628 24.4633 42.17L24.4633 20.8299C24.4633 20.1371 25.214 19.7041 25.8146 20.0505L44.3135 30.7205Z" fill="#F6F6F6"/>
<path d="M89.4985 39.7281C89.079 40.2542 88.5614 40.7134 87.9456 41.1057C87.3297 41.498 86.6693 41.8235 85.9642 42.082C85.2591 42.3406 84.5362 42.5323 83.7954 42.6571C83.0546 42.7909 82.3496 42.8578 81.6802 42.8578C80.3861 42.8578 79.1946 42.6259 78.1057 42.1623C77.0169 41.6986 76.0753 41.0611 75.2809 40.2497C74.4955 39.4294 73.8797 38.4664 73.4334 37.3608C72.9872 36.2551 72.7641 35.0648 72.7641 33.7897C72.7641 32.8179 72.8756 31.8683 73.0988 30.9409C73.3219 30.0047 73.6387 29.1264 74.0493 28.3061C74.4688 27.4769 74.9775 26.719 75.5755 26.0324C76.1734 25.337 76.8517 24.7396 77.6104 24.2402C78.369 23.7409 79.199 23.3531 80.1004 23.0766C81.0019 22.8002 81.9658 22.662 82.9922 22.662C83.3759 22.662 83.7865 22.6799 84.2238 22.7155C84.6611 22.7423 85.094 22.7958 85.5224 22.876C85.9597 22.9474 86.3837 23.0499 86.7942 23.1836C87.2048 23.3174 87.5796 23.4823 87.9188 23.6785L87.5439 28.7876C87.0441 28.6004 86.5265 28.4755 85.991 28.4131C85.4644 28.3418 84.9467 28.3061 84.438 28.3061C83.724 28.3061 83.0546 28.4176 82.4299 28.6405C81.8141 28.8545 81.2741 29.1666 80.81 29.5767C80.3548 29.9869 79.9934 30.4862 79.7256 31.0747C79.4578 31.6632 79.324 32.3275 79.324 33.0675C79.324 33.5312 79.3864 33.9814 79.5114 34.4184C79.6364 34.8463 79.8238 35.2298 80.0737 35.5686C80.3325 35.8985 80.6493 36.166 81.0242 36.3711C81.408 36.5761 81.8498 36.6787 82.3496 36.6787C82.6887 36.6787 83.0368 36.6341 83.3938 36.5449C83.7597 36.4558 84.0721 36.3042 84.3309 36.0902L84.3845 35.047L81.1715 34.9935L81.3321 30.9811C82.6619 30.9365 83.9918 30.9008 85.3216 30.8741C86.6514 30.8384 87.9902 30.7938 89.3379 30.7403L89.4985 39.7281Z" fill="black"/>
<path d="M107.076 32.2115C107.076 33.0229 106.983 33.8076 106.795 34.5655C106.608 35.3145 106.336 36.0189 105.979 36.6787C105.631 37.3385 105.202 37.9448 104.693 38.4976C104.194 39.0415 103.627 39.5096 102.993 39.902C102.368 40.2943 101.686 40.6019 100.945 40.8248C100.204 41.0388 99.4187 41.1458 98.5887 41.1458C97.7854 41.1458 97.0179 41.0433 96.286 40.8382C95.5631 40.6331 94.8848 40.3478 94.2511 39.9822C93.6174 39.6077 93.0418 39.1619 92.5241 38.6447C92.0154 38.1187 91.5781 37.5391 91.2121 36.906C90.8551 36.2641 90.574 35.5775 90.3687 34.8463C90.1724 34.1152 90.0742 33.3528 90.0742 32.5593C90.0742 31.7835 90.1679 31.0257 90.3553 30.2856C90.5427 29.5366 90.8105 28.8322 91.1586 28.1724C91.5156 27.5126 91.944 26.9063 92.4438 26.3534C92.9436 25.8006 93.5014 25.3236 94.1172 24.9223C94.742 24.5211 95.4158 24.209 96.1387 23.9861C96.8617 23.7632 97.6248 23.6518 98.428 23.6518C99.7222 23.6518 100.9 23.8524 101.962 24.2536C103.033 24.6549 103.944 25.23 104.693 25.9789C105.452 26.719 106.037 27.6196 106.447 28.6806C106.867 29.7328 107.076 30.9097 107.076 32.2115ZM101.132 32.5593C101.132 32.1759 101.074 31.8058 100.958 31.4492C100.851 31.0836 100.691 30.7626 100.476 30.4862C100.262 30.2009 99.9944 29.9735 99.6731 29.8041C99.3607 29.6258 98.9992 29.5366 98.5887 29.5366C98.1692 29.5366 97.7943 29.6124 97.4641 29.764C97.1339 29.9156 96.8483 30.1251 96.6073 30.3926C96.3753 30.6512 96.1968 30.9588 96.0718 31.3154C95.9469 31.6632 95.8844 32.0332 95.8844 32.4255C95.8844 32.8 95.9379 33.1745 96.045 33.549C96.1521 33.9235 96.3128 34.2623 96.527 34.5655C96.7412 34.8686 97.0045 35.1138 97.3169 35.3011C97.6382 35.4883 98.0085 35.582 98.428 35.582C98.8475 35.582 99.2224 35.5017 99.5526 35.3412C99.8917 35.1718 100.177 34.9489 100.409 34.6725C100.641 34.3871 100.82 34.0617 100.945 33.6961C101.07 33.3306 101.132 32.9516 101.132 32.5593Z" fill="black"/>
<path d="M120.169 28.3061L114.038 36.0367H119.687L119.875 41.7075L107.933 42.189L107.398 36.9462L114.386 28.3864L107.451 28.8679L107.398 23.4913H119.928L120.169 28.3061Z" fill="black"/>
<path d="M132.955 35.368L132.392 41.3063L121.12 42.189L121.548 23.09H128.51L127.519 35.368H132.955Z" fill="black"/>
<path d="M148.524 31.6498C148.524 32.4255 148.471 33.2013 148.364 33.977C146.837 34.0751 145.32 34.2356 143.812 34.4585C142.304 34.6725 140.795 34.8865 139.287 35.1005C139.519 35.7424 139.88 36.2551 140.371 36.6385C140.871 37.022 141.465 37.2137 142.152 37.2137C142.509 37.2137 142.897 37.1468 143.317 37.013C143.745 36.8793 144.169 36.7143 144.588 36.5182C145.008 36.3131 145.409 36.0946 145.793 35.8628C146.177 35.631 146.507 35.4215 146.784 35.2342L146.141 41.3063C145.793 41.5738 145.414 41.8012 145.003 41.9884C144.602 42.1757 144.182 42.3272 143.745 42.4432C143.308 42.5591 142.866 42.6438 142.42 42.6973C141.973 42.7508 141.536 42.7775 141.108 42.7775C140.224 42.7775 139.416 42.6571 138.684 42.4164C137.953 42.1757 137.288 41.8413 136.69 41.4133C136.101 40.9764 135.583 40.4637 135.137 39.8752C134.69 39.2867 134.32 38.6447 134.026 37.9493C133.731 37.2538 133.508 36.5182 133.356 35.7424C133.204 34.9667 133.129 34.1821 133.129 33.3885C133.129 32.5593 133.204 31.73 133.356 30.9008C133.508 30.0716 133.735 29.2736 134.039 28.5068C134.351 27.7399 134.74 27.0311 135.204 26.3802C135.677 25.7204 136.226 25.1453 136.85 24.6549C137.475 24.1644 138.18 23.781 138.966 23.5046C139.76 23.2282 140.635 23.09 141.59 23.09C142.384 23.09 143.107 23.2015 143.758 23.4244C144.419 23.6384 145.003 23.9415 145.512 24.3339C146.03 24.7173 146.476 25.1765 146.851 25.7115C147.235 26.2464 147.547 26.8349 147.788 27.4769C148.038 28.11 148.221 28.7832 148.337 29.4965C148.462 30.2009 148.524 30.9187 148.524 31.6498ZM143.169 30.9543C143.169 30.7047 143.142 30.4505 143.089 30.192C143.035 29.9245 142.946 29.6837 142.821 29.4697C142.705 29.2557 142.549 29.0819 142.353 28.9481C142.156 28.8055 141.911 28.7341 141.616 28.7341C141.259 28.7341 140.942 28.8322 140.666 29.0284C140.398 29.2156 140.166 29.4564 139.97 29.7506C139.773 30.0359 139.613 30.348 139.488 30.6868C139.363 31.0257 139.269 31.3377 139.207 31.6231L143.169 31.2486V30.9543Z" fill="black"/>
<path d="M171.136 23.7053L166.236 42.3228L159.596 42.6973L153.571 23.8925L159.917 23.304L162.488 34.2712L164.978 23.304L171.136 23.7053Z" fill="black"/>
<path d="M178.566 23.625L177.629 41.8413L171.979 42.1355L171.444 23.9995L178.566 23.625Z" fill="black"/>
<path d="M194.832 31.837C194.832 33.0853 194.671 34.2044 194.35 35.1941C194.029 36.1838 193.578 37.0621 192.998 37.8289C192.427 38.5868 191.744 39.2332 190.949 39.7682C190.155 40.3032 189.285 40.7446 188.339 41.0923C187.393 41.4311 186.384 41.6808 185.313 41.8413C184.251 42.0018 183.158 42.082 182.033 42.082C181.614 42.082 181.203 42.0731 180.802 42.0553C180.4 42.0285 179.99 41.9929 179.57 41.9483L179.945 24.5345C180.927 24.2224 181.935 24.004 182.97 23.8791C184.015 23.7454 185.05 23.6785 186.076 23.6785C187.353 23.6785 188.526 23.8568 189.597 24.2135C190.668 24.5701 191.592 25.0962 192.369 25.7917C193.145 26.4783 193.747 27.3298 194.176 28.3463C194.613 29.3538 194.832 30.5174 194.832 31.837ZM185.728 36.9729C186.264 36.8927 186.75 36.7322 187.188 36.4914C187.634 36.2418 188.018 35.9386 188.339 35.582C188.66 35.2164 188.906 34.8062 189.075 34.3515C189.254 33.8878 189.343 33.3974 189.343 32.8803C189.343 32.372 189.289 31.8995 189.182 31.4626C189.075 31.0167 188.901 30.6333 188.66 30.3123C188.419 29.9824 188.102 29.7238 187.71 29.5366C187.317 29.3404 186.835 29.2334 186.264 29.2156L185.728 36.9729Z" fill="black"/>
<path d="M210.616 31.6498C210.616 32.4255 210.562 33.2013 210.455 33.977C208.929 34.0751 207.412 34.2356 205.903 34.4585C204.395 34.6725 202.887 34.8865 201.378 35.1005C201.61 35.7424 201.972 36.2551 202.463 36.6385C202.963 37.022 203.556 37.2137 204.243 37.2137C204.6 37.2137 204.989 37.1468 205.408 37.013C205.836 36.8793 206.26 36.7143 206.68 36.5182C207.099 36.3131 207.501 36.0946 207.885 35.8628C208.269 35.631 208.599 35.4215 208.875 35.2342L208.233 41.3063C207.885 41.5738 207.505 41.8012 207.095 41.9884C206.693 42.1757 206.274 42.3272 205.836 42.4432C205.399 42.5591 204.957 42.6438 204.511 42.6973C204.065 42.7508 203.628 42.7775 203.199 42.7775C202.316 42.7775 201.508 42.6571 200.776 42.4164C200.044 42.1757 199.379 41.8413 198.781 41.4133C198.192 40.9764 197.674 40.4637 197.228 39.8752C196.782 39.2867 196.412 38.6447 196.117 37.9493C195.823 37.2538 195.599 36.5182 195.448 35.7424C195.296 34.9667 195.22 34.1821 195.22 33.3885C195.22 32.5593 195.296 31.73 195.448 30.9008C195.599 30.0716 195.827 29.2736 196.13 28.5068C196.443 27.7399 196.831 27.0311 197.295 26.3802C197.768 25.7204 198.317 25.1453 198.942 24.6549C199.567 24.1644 200.272 23.781 201.057 23.5046C201.851 23.2282 202.726 23.09 203.681 23.09C204.475 23.09 205.198 23.2015 205.85 23.4244C206.51 23.6384 207.095 23.9415 207.604 24.3339C208.121 24.7173 208.568 25.1765 208.942 25.7115C209.326 26.2464 209.639 26.8349 209.879 27.4769C210.129 28.11 210.312 28.7832 210.428 29.4965C210.553 30.2009 210.616 30.9187 210.616 31.6498ZM205.261 30.9543C205.261 30.7047 205.234 30.4505 205.18 30.192C205.127 29.9245 205.038 29.6837 204.913 29.4697C204.797 29.2557 204.64 29.0819 204.444 28.9481C204.248 28.8055 204.002 28.7341 203.708 28.7341C203.351 28.7341 203.034 28.8322 202.757 29.0284C202.49 29.2156 202.258 29.4564 202.061 29.7506C201.865 30.0359 201.704 30.348 201.579 30.6868C201.454 31.0257 201.361 31.3377 201.298 31.6231L205.261 31.2486V30.9543Z" fill="black"/>
<path d="M228.046 32.2115C228.046 33.0229 227.953 33.8076 227.765 34.5655C227.578 35.3145 227.306 36.0189 226.949 36.6787C226.601 37.3385 226.172 37.9448 225.663 38.4976C225.164 39.0415 224.597 39.5096 223.963 39.902C223.338 40.2943 222.656 40.6019 221.915 40.8248C221.174 41.0388 220.389 41.1458 219.559 41.1458C218.755 41.1458 217.988 41.0433 217.256 40.8382C216.533 40.6331 215.855 40.3478 215.221 39.9822C214.587 39.6077 214.012 39.1619 213.494 38.6447C212.985 38.1187 212.548 37.5391 212.182 36.906C211.825 36.2641 211.544 35.5775 211.339 34.8463C211.142 34.1152 211.044 33.3528 211.044 32.5593C211.044 31.7835 211.138 31.0257 211.325 30.2856C211.513 29.5366 211.781 28.8322 212.129 28.1724C212.486 27.5126 212.914 26.9063 213.414 26.3534C213.914 25.8006 214.471 25.3236 215.087 24.9223C215.712 24.5211 216.386 24.209 217.109 23.9861C217.832 23.7632 218.595 23.6518 219.398 23.6518C220.692 23.6518 221.87 23.8524 222.932 24.2536C224.003 24.6549 224.914 25.23 225.663 25.9789C226.422 26.719 227.007 27.6196 227.417 28.6806C227.837 29.7328 228.046 30.9097 228.046 32.2115ZM222.102 32.5593C222.102 32.1759 222.044 31.8058 221.928 31.4492C221.821 31.0836 221.661 30.7626 221.446 30.4862C221.232 30.2009 220.964 29.9735 220.643 29.8041C220.331 29.6258 219.969 29.5366 219.559 29.5366C219.139 29.5366 218.764 29.6124 218.434 29.764C218.104 29.9156 217.818 30.1251 217.577 30.3926C217.345 30.6512 217.167 30.9588 217.042 31.3154C216.917 31.6632 216.854 32.0332 216.854 32.4255C216.854 32.8 216.908 33.1745 217.015 33.549C217.122 33.9235 217.283 34.2623 217.497 34.5655C217.711 34.8686 217.975 35.1138 218.287 35.3011C218.608 35.4883 218.979 35.582 219.398 35.582C219.818 35.582 220.192 35.5017 220.523 35.3412C220.862 35.1718 221.147 34.9489 221.379 34.6725C221.611 34.3871 221.79 34.0617 221.915 33.6961C222.04 33.3306 222.102 32.9516 222.102 32.5593Z" fill="black"/>
<path d="M251.314 23.304L244.861 32.2115L250.297 41.6808L244.085 42.7775L240.015 36.9997L239.801 43.045L234.231 43.259L234.66 22.769L240.898 23.1168L240.417 29.1621L244.567 22.769L251.314 23.304Z" fill="black"/>
<path d="M258.168 23.625L257.231 41.8413L251.582 42.1355L251.046 23.9995L258.168 23.625Z" fill="black"/>
<path d="M274.434 31.837C274.434 33.0853 274.274 34.2044 273.952 35.1941C273.631 36.1838 273.18 37.0621 272.6 37.8289C272.029 38.5868 271.346 39.2332 270.552 39.7682C269.758 40.3032 268.887 40.7446 267.941 41.0923C266.995 41.4311 265.987 41.6808 264.916 41.8413C263.854 42.0018 262.76 42.082 261.636 42.082C261.216 42.082 260.806 42.0731 260.404 42.0553C260.003 42.0285 259.592 41.9929 259.173 41.9483L259.547 24.5345C260.529 24.2224 261.538 24.004 262.573 23.8791C263.617 23.7454 264.652 23.6785 265.679 23.6785C266.955 23.6785 268.129 23.8568 269.2 24.2135C270.271 24.5701 271.195 25.0962 271.971 25.7917C272.747 26.4783 273.35 27.3298 273.778 28.3463C274.216 29.3538 274.434 30.5174 274.434 31.837ZM265.331 36.9729C265.866 36.8927 266.353 36.7322 266.79 36.4914C267.236 36.2418 267.62 35.9386 267.941 35.582C268.263 35.2164 268.508 34.8062 268.678 34.3515C268.856 33.8878 268.945 33.3974 268.945 32.8803C268.945 32.372 268.892 31.8995 268.785 31.4626C268.678 31.0167 268.504 30.6333 268.263 30.3123C268.022 29.9824 267.705 29.7238 267.312 29.5366C266.919 29.3404 266.437 29.2334 265.866 29.2156L265.331 36.9729Z" fill="black"/>
<path d="M289 35.6087C289 36.8303 288.786 37.8869 288.357 38.7785C287.938 39.6612 287.358 40.3924 286.617 40.9719C285.885 41.5426 285.024 41.9661 284.033 42.2425C283.051 42.51 281.994 42.6438 280.86 42.6438C280.423 42.6438 279.941 42.5858 279.414 42.4699C278.897 42.354 278.37 42.2113 277.835 42.0419C277.299 41.8636 276.782 41.6763 276.282 41.4802C275.791 41.2751 275.354 41.0834 274.97 40.9051L275.559 35.6622C276.318 36.1169 277.156 36.4647 278.076 36.7054C279.004 36.9372 279.914 37.0532 280.807 37.0532C280.976 37.0532 281.182 37.0487 281.423 37.0398C281.664 37.022 281.891 36.9818 282.105 36.9194C282.329 36.8481 282.516 36.7455 282.668 36.6118C282.819 36.4781 282.895 36.2864 282.895 36.0367C282.895 35.8673 282.842 35.7246 282.735 35.6087C282.628 35.4839 282.489 35.3858 282.32 35.3145C282.15 35.2342 281.958 35.1763 281.744 35.1406C281.53 35.096 281.32 35.0648 281.115 35.047C280.909 35.0291 280.718 35.0202 280.539 35.0202C280.361 35.0202 280.218 35.0202 280.111 35.0202C279.343 35.0202 278.642 34.8998 278.009 34.6591C277.384 34.4184 276.844 34.0795 276.389 33.6426C275.943 33.1968 275.595 32.6618 275.345 32.0377C275.095 31.4046 274.97 30.7047 274.97 29.9378C274.97 28.8857 275.18 27.945 275.599 27.1158C276.027 26.2776 276.594 25.5688 277.299 24.9892C278.013 24.4007 278.83 23.9505 279.749 23.6384C280.668 23.3263 281.619 23.1703 282.601 23.1703C283.038 23.1703 283.489 23.1881 283.953 23.2238C284.417 23.2505 284.877 23.304 285.332 23.3843C285.796 23.4645 286.247 23.567 286.684 23.6919C287.121 23.8167 287.536 23.9727 287.929 24.16L287.42 29.5901C286.813 29.385 286.175 29.2156 285.506 29.0819C284.845 28.9392 284.198 28.8679 283.565 28.8679C283.449 28.8679 283.297 28.8723 283.109 28.8812C282.931 28.8812 282.739 28.8946 282.534 28.9214C282.337 28.9392 282.137 28.9704 281.931 29.015C281.726 29.0596 281.543 29.122 281.382 29.2022C281.222 29.2736 281.092 29.3717 280.994 29.4965C280.896 29.6213 280.851 29.7684 280.86 29.9378C280.869 30.134 280.941 30.2856 281.075 30.3926C281.217 30.4996 281.396 30.5798 281.61 30.6333C281.833 30.6779 282.074 30.7002 282.333 30.7002C282.601 30.7002 282.864 30.6957 283.123 30.6868C283.382 30.669 283.623 30.6556 283.846 30.6467C284.069 30.6289 284.252 30.6244 284.395 30.6333C285.109 30.6779 285.751 30.8295 286.322 31.0881C286.894 31.3466 287.376 31.6899 287.768 32.1179C288.17 32.5459 288.473 33.0586 288.679 33.656C288.893 34.2445 289 34.8954 289 35.6087Z" fill="black"/>
</svg>
