<svg width="92" height="92" viewBox="0 0 92 92" fill="none" xmlns="http://www.w3.org/2000/svg">
<path d="M46.8144 63.3679C45.1913 63.3829 43.6399 64.0382 42.4975 65.1913C41.3551 66.3443 40.7142 67.9018 40.7141 69.5249C40.7141 71.148 41.355 72.7055 42.4974 73.8585C43.6397 75.0116 45.1912 75.667 46.8142 75.6821C48.4373 75.667 49.9887 75.0117 51.1311 73.8587C52.2735 72.7056 52.9144 71.1482 52.9144 69.5251C52.9145 67.9019 52.2736 66.3444 51.1312 65.1914C49.9889 64.0383 48.4374 63.383 46.8144 63.3679ZM46.8143 72.8071C45.9504 72.797 45.1254 72.4468 44.5181 71.8324C43.9108 71.218 43.5702 70.3889 43.5702 69.525C43.5702 68.6611 43.9107 67.832 44.518 67.2176C45.1253 66.6032 45.9504 66.2529 46.8142 66.2429C47.6784 66.2524 48.5039 66.6024 49.1116 67.2169C49.7194 67.8314 50.0602 68.6607 50.0602 69.5249C50.0602 70.3892 49.7194 71.2185 49.1117 71.833C48.504 72.4475 47.6785 72.7975 46.8143 72.8071Z" fill="#EE0000" stroke="#EE0000"/>
<path d="M64.4719 16.9194C62.5687 16.9179 60.6738 17.1693 58.8369 17.6669C54.9186 16.7117 50.895 16.2576 46.8625 16.3154C39.3021 16.2928 31.8123 17.7702 24.8268 20.6621C17.8413 23.554 11.4989 27.8031 6.16687 33.1631C5.89983 33.4342 5.75107 33.8 5.75316 34.1805C5.75525 34.561 5.90802 34.9251 6.17801 35.1932C6.44801 35.4613 6.81324 35.6115 7.19373 35.6109C7.57422 35.6103 7.93897 35.459 8.20812 35.19C14.1242 29.2613 21.3268 24.7754 29.2569 22.0805C37.1871 19.3856 45.6315 18.5541 53.935 19.6506C48.9466 22.41 45.2367 27.0126 43.5994 32.4731C33.747 33.2482 24.4949 37.5148 17.5087 44.505C17.2472 44.7757 17.1021 45.1381 17.1047 45.5145C17.1072 45.891 17.2572 46.2514 17.5224 46.5185C17.7877 46.7856 18.147 46.9381 18.5234 46.9433C18.8998 46.9485 19.2633 46.8059 19.5358 46.5463C25.8181 40.2492 34.0876 36.3227 42.9381 35.4344C42.2688 39.8806 42.9919 44.4249 45.0081 48.4438C38.9002 48.8606 33.1547 51.4932 28.8506 55.8469C28.5924 56.1197 28.4512 56.4826 28.457 56.8582C28.4628 57.2337 28.6153 57.5921 28.8818 57.8568C29.1483 58.1214 29.5078 58.2713 29.8834 58.2745C30.259 58.2777 30.6209 58.1339 30.8919 57.8738C32.9597 55.7842 35.4196 54.1232 38.1306 52.986C40.8415 51.8488 43.7502 51.2579 46.69 51.2469C48.6996 54.0943 51.3637 56.4174 54.4581 58.0209C57.5525 59.6244 60.9867 60.4613 64.4719 60.4613C93.357 59.27 93.3617 18.1155 64.4719 16.9194ZM64.4719 57.5863C59.4618 57.5834 54.6576 55.5929 51.1136 52.0516C47.5696 48.5103 45.5754 43.7076 45.5687 38.6975C46.6091 13.6201 82.3385 13.6275 83.375 38.6975C83.3683 43.7076 81.3741 48.5103 77.8301 52.0516C74.2861 55.5929 69.4819 57.5834 64.4719 57.5863Z" fill="#EE0000" stroke="#EE0000"/>
<path d="M64.536 46.0295C64.1596 46.0386 63.8018 46.195 63.5395 46.4651C63.2772 46.7351 63.1312 47.0973 63.1331 47.4738C63.1349 47.8503 63.2843 48.2111 63.5493 48.4786C63.8142 48.7461 64.1735 48.899 64.5499 48.9045C64.9263 48.8953 65.2841 48.7389 65.5464 48.4689C65.8087 48.1988 65.9547 47.8366 65.9528 47.4601C65.951 47.0836 65.8016 46.7229 65.5366 46.4554C65.2717 46.1879 64.9124 46.035 64.536 46.0295Z" fill="#EE0000" stroke="#EE0000"/>
<path d="M64.5401 28.4622C64.1594 28.4623 63.7942 28.6134 63.5247 28.8823C63.2553 29.1513 63.1035 29.5161 63.1026 29.8968L63.0745 41.5555C63.0741 41.7442 63.111 41.9312 63.1829 42.1058C63.2548 42.2803 63.3603 42.439 63.4936 42.5728C63.6268 42.7065 63.785 42.8127 63.9593 42.8853C64.1336 42.9579 64.3204 42.9954 64.5092 42.9958C64.698 42.9962 64.885 42.9593 65.0595 42.8874C65.2341 42.8155 65.3927 42.71 65.5265 42.5767C65.6602 42.4435 65.7664 42.2852 65.839 42.111C65.9116 41.9367 65.9491 41.7499 65.9495 41.5611L65.9776 29.9025C65.9779 29.7135 65.941 29.5262 65.8689 29.3515C65.7968 29.1768 65.691 29.018 65.5575 28.8843C65.424 28.7505 65.2654 28.6444 65.0908 28.5719C64.9162 28.4995 64.7291 28.4622 64.5401 28.4622Z" fill="#EE0000" stroke="#EE0000"/>
</svg>
