<svg width="46" height="46" viewBox="0 0 46 46" fill="none" xmlns="http://www.w3.org/2000/svg">
<path d="M46 23C46 35.7025 35.7025 46 23 46C10.2975 46 0 35.7025 0 23C0 10.2975 10.2975 0 23 0C35.7025 0 46 10.2975 46 23Z" fill="#EE0000"/>
<path d="M32.3247 22.4308C32.7628 22.6838 32.7628 23.3161 32.3247 23.5691L18.8306 31.3599C18.3925 31.6128 17.8449 31.2966 17.8449 30.7908L17.8449 15.2091C17.8449 14.7033 18.3925 14.3871 18.8306 14.64L32.3247 22.4308Z" fill="#F6F6F6"/>
<path d="M46 23C46 35.7025 35.7025 46 23 46C10.2975 46 0 35.7025 0 23C0 10.2975 10.2975 0 23 0C35.7025 0 46 10.2975 46 23Z" fill="#EE0000"/>
<path d="M32.3247 22.4308C32.7628 22.6838 32.7628 23.3161 32.3247 23.5691L18.8306 31.3599C18.3925 31.6128 17.8449 31.2966 17.8449 30.7908L17.8449 15.2091C17.8449 14.7033 18.3925 14.3871 18.8306 14.64L32.3247 22.4308Z" fill="#F6F6F6"/>
<path d="M46 23C46 35.7025 35.7025 46 23 46C10.2975 46 0 35.7025 0 23C0 10.2975 10.2975 0 23 0C35.7025 0 46 10.2975 46 23Z" fill="#EE0000"/>
<path d="M32.3247 22.4308C32.7628 22.6838 32.7628 23.3161 32.3247 23.5691L18.8306 31.3599C18.3925 31.6128 17.8449 31.2966 17.8449 30.7908L17.8449 15.2091C17.8449 14.7033 18.3925 14.3871 18.8306 14.64L32.3247 22.4308Z" fill="#F6F6F6"/>
</svg>
