<svg width="70" height="70" viewBox="0 0 70 70" fill="none" xmlns="http://www.w3.org/2000/svg">
<path d="M70 35C70 54.33 54.33 70 35 70C15.67 70 0 54.33 0 35C0 15.67 15.67 0 35 0C54.33 0 70 15.67 70 35Z" fill="#00ACEE"/>
<path d="M49.1897 34.1339C49.8564 34.5188 49.8564 35.4811 49.1897 35.866L28.6553 47.7215C27.9886 48.1064 27.1552 47.6253 27.1552 46.8555L27.1553 23.1443C27.1553 22.3745 27.9886 21.8934 28.6553 22.2783L49.1897 34.1339Z" fill="#F6F6F6"/>
<path d="M70 35C70 54.33 54.33 70 35 70C15.67 70 0 54.33 0 35C0 15.67 15.67 0 35 0C54.33 0 70 15.67 70 35Z" fill="#00ACEE"/>
<path d="M49.1897 34.1339C49.8564 34.5188 49.8564 35.4811 49.1897 35.866L28.6553 47.7215C27.9886 48.1064 27.1552 47.6253 27.1552 46.8555L27.1553 23.1443C27.1553 22.3745 27.9886 21.8934 28.6553 22.2783L49.1897 34.1339Z" fill="#F6F6F6"/>
<path d="M70 35C70 54.33 54.33 70 35 70C15.67 70 0 54.33 0 35C0 15.67 15.67 0 35 0C54.33 0 70 15.67 70 35Z" fill="#00ACEE"/>
<path d="M49.1897 34.1339C49.8564 34.5188 49.8564 35.4811 49.1897 35.866L28.6553 47.7215C27.9886 48.1064 27.1552 47.6253 27.1552 46.8555L27.1553 23.1443C27.1553 22.3745 27.9886 21.8934 28.6553 22.2783L49.1897 34.1339Z" fill="#F6F6F6"/>
</svg>
