<svg width="49" height="64" viewBox="0 0 49 64" fill="none" xmlns="http://www.w3.org/2000/svg">
<path d="M42.6177 57.6264V27.2967H6.08824V57.6264H42.6177ZM42.6177 21.2308C44.2324 21.2308 45.7809 21.8699 46.9227 23.0074C48.0645 24.145 48.7059 25.6879 48.7059 27.2967V57.6264C48.7059 59.2352 48.0645 60.7781 46.9227 61.9157C45.7809 63.0532 44.2324 63.6923 42.6177 63.6923H6.08824C2.70927 63.6923 0 60.9627 0 57.6264V27.2967C0 25.6879 0.641437 24.145 1.7832 23.0074C2.92497 21.8699 4.47354 21.2308 6.08824 21.2308H33.4853V15.1648C33.4853 12.7517 32.5231 10.4373 30.8105 8.73094C29.0978 7.02457 26.775 6.06594 24.3529 6.06594C21.9309 6.06594 19.608 7.02457 17.8954 8.73094C16.1827 10.4373 15.2206 12.7517 15.2206 15.1648H9.13235C9.13235 11.1429 10.7359 7.28564 13.5904 4.44168C16.4448 1.59772 20.3162 0 24.3529 0C26.3517 0 28.331 0.39225 30.1776 1.15435C32.0243 1.91646 33.7022 3.03349 35.1155 4.44168C36.5289 5.84986 37.65 7.52162 38.4149 9.36151C39.1798 11.2014 39.5735 13.1734 39.5735 15.1648V21.2308H42.6177ZM24.3529 48.5275C22.7382 48.5275 21.1897 47.8884 20.0479 46.7508C18.9061 45.6132 18.2647 44.0703 18.2647 42.4615C18.2647 40.8528 18.9061 39.3099 20.0479 38.1723C21.1897 37.0347 22.7382 36.3956 24.3529 36.3956C25.9676 36.3956 27.5162 37.0347 28.658 38.1723C29.7997 39.3099 30.4412 40.8528 30.4412 42.4615C30.4412 44.0703 29.7997 45.6132 28.658 46.7508C27.5162 47.8884 25.9676 48.5275 24.3529 48.5275Z" fill="white"/>
</svg>
